<svg xmlns="http://www.w3.org/2000/svg" width="259.507" height="231.275" viewBox="0 0 259.507 231.275">
  <g id="Group_42" data-name="Group 42" transform="translate(-842.27 -424.359)">
    <g id="Group_38" data-name="Group 38" transform="translate(-10.876 -78.436)">
      <rect id="Rectangle_2" data-name="Rectangle 2" width="135.195" height="3" rx="1.5" transform="translate(928.424 567.35) rotate(45)" fill="#fff"/>
      <rect id="Rectangle_24" data-name="Rectangle 24" width="135.195" height="3" rx="1.5" transform="translate(1024.022 573.924) rotate(135)" fill="#fff"/>
    </g>
    <path id="Path_25" data-name="Path 25" d="M2988.461,4072.951s107.3-9.558,116.549,47.791-26.517,107.917-57.967,123.333-128.266,6.784-146.766-19.116-20.35-84.483,14.8-116.549S2988.461,4072.951,2988.461,4072.951Z" transform="translate(-2034.818 -3622.041)" fill="none" stroke="#fff" stroke-width="1"/>
    <path id="Path_26" data-name="Path 26" d="M2988.461,4072.951s107.3-9.558,116.549,47.791-26.517,107.917-57.967,123.333-128.266,6.784-146.766-19.116-20.35-84.483,14.8-116.549S2988.461,4072.951,2988.461,4072.951Z" transform="matrix(-0.966, 0.259, -0.259, -0.966, 4944.037, 3784.573)" fill="none" stroke="#fff" stroke-width="1"/>
  </g>
</svg>
