<svg xmlns="http://www.w3.org/2000/svg" width="106.82" height="68.973" viewBox="0 0 106.82 68.973">
  <g id="Group_42" data-name="Group 42" transform="translate(-1050.59 -551.14)">
    <path id="Path_27" data-name="Path 27" d="M1013.41,537.57c-8.3,53.57-49.69,32.43-49.69,32.43,20-1,30-25,30-25-9,5-16,5-16,5,4-9,1-20.22,1-20.22l-11,12.22A27.755,27.755,0,0,0,960,523.02,27.755,27.755,0,0,0,952.28,542l-11-12.22s-3,11.22,1,20.22c0,0-7,0-16-5,0,0,10,24,30,25,0,0-41.39,21.14-49.69-32.43l18.68,6.42c-.27-.49-7.78-14.28,4.01-29.99,0,0,7,12,12,14A32.289,32.289,0,0,1,960,505.14,32.289,32.289,0,0,1,978.72,528c5-2,12-14,12-14,11.79,15.71,4.28,29.5,4.01,29.99Z" transform="translate(144 46)" fill="#ed4e32"/>
  </g>
</svg>
