<svg xmlns="http://www.w3.org/2000/svg" width="295.205" height="68.973" viewBox="0 0 295.205 68.973">
  <g id="Group_42" data-name="Group 42" transform="translate(-906.59 -505.14)">
    <path id="Path_27" data-name="Path 27" d="M1013.41,537.57c-8.3,53.57-49.69,32.43-49.69,32.43,20-1,30-25,30-25-9,5-16,5-16,5,4-9,1-20.22,1-20.22l-11,12.22A27.755,27.755,0,0,0,960,523.02,27.755,27.755,0,0,0,952.28,542l-11-12.22s-3,11.22,1,20.22c0,0-7,0-16-5,0,0,10,24,30,25,0,0-41.39,21.14-49.69-32.43l18.68,6.42c-.27-.49-7.78-14.28,4.01-29.99,0,0,7,12,12,14A32.289,32.289,0,0,1,960,505.14,32.289,32.289,0,0,1,978.72,528c5-2,12-14,12-14,11.79,15.71,4.28,29.5,4.01,29.99Z" fill="#ed4e32"/>
    <g id="Group_40" data-name="Group 40" transform="translate(-0.795 2.021)">
      <path id="Path_28" data-name="Path 28" d="M1043.344,540.748v20.47h-11.651V513.429h11.651v18.706h16.519V513.429h11.576v47.789h-11.576v-20.47Z" transform="translate(0 -0.012)" fill="#fff"/>
      <path id="Path_29" data-name="Path 29" d="M1114.81,513.429v8.542h-18.778v10.236h15.6l-1.339,8.4h-14.26v12.07H1115.8v8.541h-31.417V513.429Z" transform="translate(-4.097 -0.012)" fill="#fff"/>
      <path id="Path_30" data-name="Path 30" d="M1139.2,513.277c12,0,18.07,4.73,18.07,13.693,0,6-3.178,9.812-8.116,12,5.575,3.176,8.254,10.659,13.2,22.235h-12.5c-6.069-13.2-7.621-20.258-12.49-20.258h-1.2v20.258h-11.651V513.417C1126.139,513.417,1136.093,513.277,1139.2,513.277Zm-.069,20.4c3.317,0,5.925-1.977,5.925-6.282,0-3.531-1.483-6.494-6.282-6.494h-2.609v12.777Z" transform="translate(-7.218)" fill="#fff"/>
      <path id="Path_31" data-name="Path 31" d="M1195.612,513.429l17.508,47.789h-11.789l-3.529-11.507h-15.461l-3.668,11.507H1167.1l18.139-47.789Zm-5.506,11.929c-1.058,3.6-3.173,10.306-5.082,15.743h10.168C1193.284,535.595,1191.169,528.818,1190.106,525.358Z" transform="translate(-10.53 -0.012)" fill="#fff"/>
    </g>
  </g>
</svg>
