<svg xmlns="http://www.w3.org/2000/svg" width="16.981" height="14.506" viewBox="0 0 16.981 14.506">
  <g id="Icon_ionic-ios-sync" data-name="Icon ionic-ios-sync" transform="translate(-1.127 -3.586)">
    <path id="Path_34" data-name="Path 34" d="M20.048,10.878a.478.478,0,0,0-.679,0l-.46.46A7.273,7.273,0,0,0,16.6,5.5a7.217,7.217,0,0,0-10.03.223A7.286,7.286,0,0,0,5.379,7.308a.508.508,0,0,0-.042.393.5.5,0,0,0,.255.3.507.507,0,0,0,.226.053A.5.5,0,0,0,6.257,7.8,6.209,6.209,0,0,1,16.1,6.416a6.239,6.239,0,0,1,1.783,5.1l-.669-.655a.47.47,0,0,0-.662,0,.47.47,0,0,0,0,.665l1.514,1.518a.35.35,0,0,0,.5,0l1.49-1.493A.484.484,0,0,0,20.048,10.878Z" transform="translate(-2.081)" fill="#fff"/>
    <path id="Path_35" data-name="Path 35" d="M15.724,18.532a.507.507,0,0,0-.226-.053.5.5,0,0,0-.439.258A6.218,6.218,0,0,1,5.212,20.12a6.276,6.276,0,0,1-1.78-5.091l.651.655a.453.453,0,0,0,.637,0l.046-.046a.451.451,0,0,0,0-.633L3.249,13.483a.35.35,0,0,0-.5,0l-1.486,1.5a.48.48,0,1,0,.679.679l.46-.463A7.363,7.363,0,0,0,2.725,17.9a7.221,7.221,0,0,0,6.892,5.056,7.235,7.235,0,0,0,2.721-.531,7.146,7.146,0,0,0,2.392-1.6,7.225,7.225,0,0,0,1.21-1.606.5.5,0,0,0-.216-.693Z" transform="translate(0 -4.866)" fill="#fff"/>
  </g>
</svg>
