<svg xmlns="http://www.w3.org/2000/svg" width="121.269" height="28.334" viewBox="0 0 121.269 28.334">
  <g id="Group_41" data-name="Group 41" transform="translate(-906.59 -505.14)">
    <path id="Path_27" data-name="Path 27" d="M950.471,518.462c-3.41,22.006-20.412,13.322-20.412,13.322,8.216-.411,12.324-10.27,12.324-10.27a14.921,14.921,0,0,1-6.573,2.054c1.643-3.7.411-8.306.411-8.306l-4.519,5.02a11.4,11.4,0,0,0-3.171-7.8,11.4,11.4,0,0,0-3.171,7.8l-4.519-5.02s-1.232,4.609.411,8.306a14.921,14.921,0,0,1-6.573-2.054s4.108,9.859,12.324,10.27c0,0-17,8.684-20.412-13.322l7.674,2.637c-.111-.2-3.2-5.866,1.647-12.32,0,0,2.876,4.93,4.93,5.751a13.264,13.264,0,0,1,7.69-9.391,13.264,13.264,0,0,1,7.69,9.391c2.054-.822,4.93-5.751,4.93-5.751,4.843,6.454,1.758,12.118,1.647,12.32Z" fill="#ed4e32"/>
    <g id="Group_40" data-name="Group 40" transform="translate(957.655 509.313)">
      <path id="Path_28" data-name="Path 28" d="M1036.479,524.652v8.409h-4.786V513.429h4.786v7.684h6.786v-7.684h4.755v19.632h-4.755v-8.409Z" transform="translate(-1031.693 -513.371)" fill="#fff"/>
      <path id="Path_29" data-name="Path 29" d="M1096.882,513.429v3.509h-7.714v4.2h6.408l-.55,3.451h-5.858v4.958h8.12v3.509h-12.906V513.429Z" transform="translate(-1064.421 -513.371)" fill="#fff"/>
      <path id="Path_30" data-name="Path 30" d="M1130.545,513.277c4.93,0,7.423,1.943,7.423,5.625a5.1,5.1,0,0,1-3.334,4.93c2.29,1.3,3.391,4.379,5.421,9.134h-5.133c-2.493-5.422-3.131-8.322-5.131-8.322h-.493v8.322h-4.786V513.335C1125.18,513.335,1129.27,513.277,1130.545,513.277Zm-.028,8.381a2.31,2.31,0,0,0,2.434-2.581,2.343,2.343,0,0,0-2.581-2.668H1129.3v5.249Z" transform="translate(-1089.347 -513.277)" fill="#fff"/>
      <path id="Path_31" data-name="Path 31" d="M1178.811,513.429,1186,533.061h-4.843l-1.449-4.727h-6.352l-1.507,4.727H1167.1l7.452-19.632Zm-2.262,4.9c-.434,1.479-1.3,4.234-2.087,6.467h4.177C1177.855,522.535,1176.986,519.751,1176.55,518.329Z" transform="translate(-1115.8 -513.371)" fill="#fff"/>
    </g>
  </g>
</svg>
